<svg width="23" height="14" viewBox="0 0 23 14" fill="none" xmlns="http://www.w3.org/2000/svg">
<path fill-rule="evenodd" clip-rule="evenodd" d="M10.028 3C10.028 4.66 8.69338 6 7.02764 6C5.3619 6 4.01726 4.66 4.01726 3C4.01726 1.34 5.3619 0 7.02764 0C8.69338 0 10.028 1.34 10.028 3ZM18.0557 3C18.0557 4.66 16.7211 6 15.0553 6C13.3896 6 12.0449 4.66 12.0449 3C12.0449 1.34 13.3896 0 15.0553 0C16.7211 0 18.0557 1.34 18.0557 3ZM7.02764 8C4.68958 8 0.00341797 9.17 0.00341797 11.5V13C0.00341797 13.55 0.454975 14 1.00688 14H13.0484C13.6003 14 14.0519 13.55 14.0519 13V11.5C14.0519 9.17 9.3657 8 7.02764 8ZM14.082 8.05C14.4332 8.02 14.7643 8 15.0553 8C17.3934 8 22.0795 9.17 22.0795 11.5V13C22.0795 13.55 21.628 14 21.0761 14H15.8782C15.9885 13.69 16.0588 13.35 16.0588 13V11.5C16.0588 10.03 15.266 8.92 14.1221 8.09C14.1191 8.08697 14.116 8.08303 14.1127 8.07872C14.1051 8.06881 14.096 8.05697 14.082 8.05Z" fill="#808080"/>
</svg>
